<?xml version="1.0" encoding="utf-8"?>
<!-- Generator: Adobe Illustrator 16.0.0, SVG Export Plug-In . SVG Version: 6.00 Build 0)  -->
<!DOCTYPE svg PUBLIC "-//W3C//DTD SVG 1.1//EN" "http://www.w3.org/Graphics/SVG/1.1/DTD/svg11.dtd">
<svg version="1.1" id="Layer_1" xmlns="http://www.w3.org/2000/svg" xmlns:xlink="http://www.w3.org/1999/xlink" x="0px" y="0px"
	 width="600px" height="110px" viewBox="0 0 600 110" enable-background="new 0 0 600 110" xml:space="preserve">
<g>
	<path fill="#58595B" d="M553.877,105.715c-0.016,1.561-1.294,2.812-2.854,2.797c-1.561-0.017-2.812-1.294-2.796-2.854
		c0.016-1.561,1.293-2.812,2.854-2.796C552.642,102.877,553.893,104.155,553.877,105.715"/>
	<path fill="#58595B" d="M565.681,105.706c-0.012,1.086-0.9,1.957-1.985,1.945c-1.086-0.011-1.957-0.899-1.945-1.985
		c0.011-1.086,0.9-1.956,1.985-1.944C564.821,103.732,565.692,104.621,565.681,105.706"/>
	<path fill="#58595B" d="M540.355,105.706c-0.011,1.086-0.9,1.957-1.985,1.945c-1.085-0.011-1.956-0.899-1.945-1.985
		c0.012-1.086,0.9-1.956,1.985-1.944C539.495,103.732,540.366,104.621,540.355,105.706"/>
	<path fill="#58595B" d="M550.475,4.245c-0.017,1.561,1.235,2.837,2.795,2.854c1.561,0.016,2.838-1.235,2.854-2.796
		c0.016-1.561-1.235-2.838-2.796-2.854S550.49,2.685,550.475,4.245"/>
	<path fill="#58595B" d="M560.112,4.253c-0.012,1.085,0.859,1.974,1.944,1.985c1.086,0.011,1.975-0.859,1.985-1.945
		c0.012-1.085-0.859-1.975-1.945-1.986C561.012,2.297,560.123,3.168,560.112,4.253"/>
	<path fill="#58595B" d="M523.761,105.666c-0.011,1.086,0.86,1.974,1.945,1.985c1.085,0.011,1.974-0.859,1.985-1.945
		c0.011-1.085-0.86-1.975-1.945-1.985C524.662,103.709,523.772,104.58,523.761,105.666"/>
	<path fill="#58595B" d="M532.92,4.245c-0.016,1.561,1.235,2.837,2.796,2.854c1.56,0.016,2.838-1.235,2.854-2.796
		c0.017-1.561-1.235-2.838-2.796-2.854S532.936,2.685,532.92,4.245"/>
	<path fill="#58595B" d="M542.557,4.253c-0.011,1.085,0.859,1.974,1.945,1.985c1.085,0.011,1.974-0.859,1.985-1.945
		c0.011-1.085-0.86-1.975-1.945-1.986S542.569,3.168,542.557,4.253"/>
	<path fill="#58595B" d="M525.002,4.253c-0.011,1.085,0.859,1.974,1.945,1.985c1.085,0.011,1.975-0.859,1.985-1.945
		s-0.859-1.975-1.945-1.986C525.903,2.297,525.014,3.168,525.002,4.253"/>
	<path fill="#58595B" d="M523.77,15.965c-0.025,2.442-2.025,4.402-4.467,4.376c-2.442-0.025-4.401-2.025-4.377-4.467
		c0.025-2.442,2.025-4.401,4.467-4.376C521.835,11.523,523.794,13.523,523.77,15.965"/>
	<path fill="#58595B" d="M511.264,15.949c-0.016,1.561-1.294,2.812-2.854,2.796c-1.561-0.017-2.812-1.294-2.796-2.854
		c0.016-1.56,1.294-2.812,2.854-2.796C510.029,13.111,511.28,14.389,511.264,15.949"/>
	<path fill="#58595B" d="M554.846,15.949c-0.017,1.561-1.294,2.812-2.854,2.796c-1.561-0.017-2.812-1.294-2.796-2.854
		c0.016-1.56,1.294-2.812,2.854-2.796C553.61,13.111,554.862,14.389,554.846,15.949"/>
	<path fill="#58595B" d="M563.389,15.94c-0.012,1.085-0.9,1.957-1.986,1.945c-1.085-0.011-1.955-0.9-1.944-1.986
		s0.9-1.956,1.984-1.944C562.529,13.966,563.4,14.854,563.389,15.94"/>
	<path fill="#58595B" d="M541.526,11.551c-0.908-0.01-1.755,0.256-2.462,0.719v-0.006c-0.761,0.589-1.718,0.937-2.754,0.926
		c-0.807-0.008-1.558-0.234-2.206-0.618c-0.77-0.688-1.78-1.115-2.896-1.126c-2.442-0.025-4.442,1.934-4.468,4.376
		s1.934,4.442,4.377,4.467c0.896,0.009,1.73-0.251,2.433-0.702l-0.001,0.001c0,0,0.012-0.007,0.018-0.012
		c0.074-0.048,0.145-0.101,0.216-0.154c0.72-0.487,1.587-0.769,2.521-0.76c0.854,0.009,1.648,0.26,2.32,0.687
		c0.759,0.643,1.737,1.034,2.81,1.045c2.442,0.025,4.442-1.935,4.468-4.376C545.927,13.576,543.967,11.576,541.526,11.551"/>
	<path fill="#58595B" d="M577.405,15.891c-0.017,1.561,1.235,2.838,2.795,2.854c1.561,0.016,2.838-1.236,2.854-2.796
		c0.017-1.56-1.235-2.838-2.796-2.854S577.42,14.331,577.405,15.891"/>
	<path fill="#58595B" d="M568.862,15.899c-0.012,1.085,0.859,1.974,1.944,1.985s1.975-0.859,1.985-1.945
		c0.012-1.085-0.859-1.975-1.944-1.986C569.761,13.943,568.873,14.814,568.862,15.899"/>
	<path fill="#58595B" d="M590.753,31.093c-0.012,1.085,0.859,1.974,1.945,1.985c1.085,0.011,1.974-0.859,1.985-1.945
		c0.011-1.085-0.86-1.974-1.945-1.985S590.764,30.007,590.753,31.093"/>
	<path fill="#58595B" d="M537.323,31.067c-0.025,2.442,1.934,4.442,4.376,4.467c2.442,0.025,4.442-1.934,4.467-4.376
		c0.025-2.442-1.935-4.442-4.375-4.467C539.348,26.666,537.348,28.625,537.323,31.067"/>
	<path fill="#58595B" d="M560.426,31.083c-0.016,1.561,1.236,2.838,2.796,2.854c1.56,0.016,2.838-1.236,2.854-2.796
		c0.017-1.561-1.235-2.838-2.795-2.854C561.72,28.272,560.442,29.523,560.426,31.083"/>
	<path fill="#58595B" d="M550.604,31.083c-0.016,1.561,1.235,2.838,2.796,2.854c1.561,0.016,2.838-1.236,2.854-2.796
		c0.017-1.561-1.235-2.838-2.796-2.854S550.62,29.523,550.604,31.083"/>
	<path fill="#58595B" d="M502.743,31.083c-0.016,1.561,1.235,2.838,2.796,2.854c1.561,0.016,2.838-1.236,2.854-2.796
		c0.017-1.561-1.235-2.838-2.796-2.854C504.037,28.272,502.758,29.523,502.743,31.083"/>
	<path fill="#58595B" d="M494.052,31.093c-0.011,1.085,0.86,1.974,1.946,1.985c1.084,0.011,1.973-0.859,1.984-1.945
		c0.011-1.085-0.859-1.974-1.945-1.985C494.953,29.136,494.064,30.007,494.052,31.093"/>
	<path fill="#58595B" d="M571.108,31.093c-0.011,1.085,0.86,1.974,1.945,1.985s1.975-0.859,1.985-1.945
		c0.012-1.085-0.859-1.974-1.944-1.985C572.008,29.136,571.12,30.007,571.108,31.093"/>
	<path fill="#58595B" d="M580.931,31.093c-0.011,1.085,0.859,1.974,1.945,1.985c1.085,0.011,1.974-0.859,1.985-1.945
		c0.011-1.085-0.86-1.974-1.946-1.985C581.831,29.136,580.942,30.007,580.931,31.093"/>
	<path fill="#58595B" d="M518.521,26.638c0.908,0.009,1.749,0.292,2.446,0.769v-0.006c0.748,0.605,1.698,0.972,2.734,0.983
		c0.807,0.008,1.562-0.203,2.218-0.573c0.784-0.673,1.804-1.079,2.919-1.067c2.442,0.025,4.401,2.025,4.376,4.467
		c-0.025,2.442-2.024,4.401-4.467,4.376c-0.896-0.009-1.726-0.286-2.418-0.751v0.001c-0.005-0.004-0.012-0.008-0.017-0.013
		c-0.073-0.049-0.143-0.104-0.213-0.158c-0.709-0.501-1.57-0.802-2.505-0.811c-0.854-0.009-1.654,0.226-2.335,0.638
		c-0.771,0.626-1.758,0.998-2.83,0.988c-2.442-0.025-4.401-2.026-4.376-4.468S516.079,26.613,518.521,26.638"/>
	<path fill="#58595B" d="M498.371,45.198c-0.025,2.442-2.025,4.402-4.468,4.376c-2.441-0.025-4.4-2.025-4.376-4.467
		c0.025-2.442,2.025-4.401,4.468-4.376C496.436,40.756,498.396,42.755,498.371,45.198"/>
	<path fill="#58595B" d="M532.442,45.182c-0.017,1.56-1.294,2.812-2.854,2.796c-1.561-0.017-2.812-1.294-2.796-2.854
		c0.016-1.561,1.293-2.812,2.854-2.796C531.206,42.343,532.457,43.621,532.442,45.182"/>
	<path fill="#58595B" d="M541.572,45.173c-0.011,1.085-0.9,1.956-1.985,1.945s-1.956-0.9-1.944-1.985
		c0.011-1.086,0.899-1.956,1.984-1.945C540.712,43.198,541.583,44.087,541.572,45.173"/>
	<path fill="#58595B" d="M517.257,40.784c-0.907-0.009-1.755,0.256-2.462,0.719v-0.006c-0.76,0.59-1.717,0.937-2.753,0.926
		c-0.807-0.008-1.559-0.234-2.205-0.618c-0.771-0.689-1.782-1.115-2.897-1.126c-2.441-0.025-4.441,1.934-4.467,4.376
		c-0.025,2.442,1.934,4.442,4.376,4.467c0.896,0.009,1.731-0.251,2.434-0.702l-0.001,0.002c0.006-0.004,0.012-0.008,0.018-0.013
		c0.074-0.048,0.146-0.101,0.216-0.154c0.719-0.487,1.587-0.769,2.521-0.76c0.854,0.009,1.648,0.26,2.32,0.687
		c0.759,0.643,1.737,1.035,2.81,1.046c2.442,0.025,4.442-1.935,4.467-4.376C521.659,42.809,519.7,40.809,517.257,40.784"/>
	<path fill="#58595B" d="M590.527,45.106c-0.025,2.442,1.935,4.442,4.376,4.468s4.442-1.934,4.468-4.376
		c0.024-2.442-1.935-4.442-4.377-4.467S590.551,42.665,590.527,45.106"/>
	<path fill="#58595B" d="M556.762,45.124c-0.015,1.56,1.236,2.837,2.797,2.854c1.561,0.016,2.838-1.236,2.854-2.796
		c0.017-1.561-1.235-2.838-2.796-2.854C558.057,42.312,556.779,43.563,556.762,45.124"/>
	<path fill="#58595B" d="M547.632,45.132c-0.012,1.085,0.859,1.974,1.945,1.985c1.085,0.011,1.974-0.859,1.985-1.944
		c0.011-1.086-0.86-1.975-1.945-1.986C548.533,43.176,547.643,44.046,547.632,45.132"/>
	<path fill="#58595B" d="M571.579,40.678c0.908,0.009,1.748,0.293,2.446,0.769V41.44c0.747,0.605,1.697,0.972,2.734,0.983
		c0.806,0.008,1.562-0.203,2.217-0.573c0.784-0.673,1.805-1.079,2.92-1.067c2.441,0.025,4.401,2.025,4.376,4.467
		c-0.025,2.442-2.025,4.401-4.467,4.376c-0.896-0.009-1.727-0.286-2.418-0.751v0.002c-0.006-0.004-0.012-0.008-0.018-0.012
		c-0.073-0.05-0.143-0.104-0.213-0.158c-0.708-0.502-1.57-0.802-2.504-0.812c-0.854-0.009-1.654,0.226-2.335,0.639
		c-0.771,0.626-1.758,0.998-2.83,0.987c-2.442-0.025-4.401-2.025-4.376-4.467C567.136,42.612,569.136,40.652,571.579,40.678"/>
	<path fill="#58595B" d="M596.014,61.325c-0.011,1.086,0.86,1.975,1.945,1.985c1.085,0.012,1.975-0.859,1.985-1.944
		c0.011-1.086-0.86-1.975-1.944-1.985C596.915,59.369,596.026,60.24,596.014,61.325"/>
	<path fill="#58595B" d="M584.531,61.317c-0.017,1.56,1.235,2.837,2.796,2.854c1.561,0.016,2.838-1.235,2.854-2.796
		c0.016-1.561-1.236-2.838-2.796-2.854C585.825,58.505,584.546,59.757,584.531,61.317"/>
	<path fill="#58595B" d="M573.907,61.317c-0.016,1.56,1.235,2.837,2.796,2.854c1.56,0.016,2.838-1.235,2.854-2.796
		c0.017-1.561-1.235-2.838-2.796-2.854C575.201,58.505,573.922,59.757,573.907,61.317"/>
	<path fill="#58595B" d="M564.142,61.325c-0.011,1.086,0.86,1.975,1.945,1.985c1.085,0.012,1.975-0.859,1.985-1.944
		c0.011-1.086-0.859-1.975-1.945-1.985C565.042,59.369,564.154,60.24,564.142,61.325"/>
	<path fill="#58595B" d="M553.519,61.325c-0.012,1.086,0.859,1.975,1.944,1.985c1.086,0.012,1.975-0.859,1.985-1.944
		c0.012-1.086-0.859-1.975-1.945-1.985C554.418,59.369,553.53,60.24,553.519,61.325"/>
	<path fill="#58595B" d="M497.942,61.301c-0.024,2.442,1.935,4.441,4.377,4.467c2.441,0.025,4.441-1.934,4.467-4.376
		c0.024-2.442-1.935-4.442-4.376-4.468C499.967,56.898,497.967,58.858,497.942,61.301"/>
	<path fill="#58595B" d="M520.787,61.317c-0.016,1.56,1.236,2.837,2.796,2.854c1.561,0.016,2.838-1.235,2.854-2.796
		c0.018-1.561-1.234-2.838-2.795-2.854C522.081,58.505,520.803,59.757,520.787,61.317"/>
	<path fill="#58595B" d="M510.164,61.317c-0.017,1.56,1.235,2.837,2.796,2.854c1.56,0.016,2.837-1.235,2.854-2.796
		c0.016-1.561-1.235-2.838-2.796-2.854C511.457,58.505,510.178,59.757,510.164,61.317"/>
	<path fill="#58595B" d="M488.916,61.317c-0.017,1.56,1.235,2.837,2.796,2.854c1.561,0.016,2.838-1.235,2.854-2.796
		s-1.235-2.838-2.796-2.854C490.208,58.505,488.93,59.757,488.916,61.317"/>
	<path fill="#58595B" d="M532.271,61.325c-0.012,1.086,0.859,1.975,1.944,1.985c1.086,0.012,1.975-0.859,1.986-1.944
		c0.011-1.086-0.86-1.975-1.946-1.985C533.17,59.369,532.282,60.24,532.271,61.325"/>
	<path fill="#58595B" d="M542.894,61.325c-0.011,1.086,0.86,1.975,1.946,1.985c1.084,0.012,1.974-0.859,1.984-1.944
		c0.012-1.086-0.859-1.975-1.944-1.985C543.794,59.369,542.906,60.24,542.894,61.325"/>
	<path fill="#58595B" d="M567.203,76.777c-0.016,1.561,1.236,2.838,2.796,2.854c1.561,0.016,2.838-1.235,2.854-2.796
		s-1.235-2.838-2.796-2.854C568.497,73.966,567.219,75.218,567.203,76.777"/>
	<path fill="#58595B" d="M559.785,76.786c-0.011,1.086,0.86,1.975,1.945,1.985c1.085,0.012,1.975-0.859,1.985-1.944
		c0.012-1.086-0.859-1.975-1.944-1.985C560.685,74.83,559.796,75.701,559.785,76.786"/>
	<path fill="#58595B" d="M510.808,76.777c-0.017,1.561,1.235,2.838,2.796,2.854c1.561,0.016,2.838-1.235,2.854-2.796
		c0.017-1.561-1.234-2.838-2.795-2.854C512.102,73.966,510.824,75.218,510.808,76.777"/>
	<path fill="#58595B" d="M542.37,76.777c-0.015,1.561,1.236,2.838,2.797,2.854c1.56,0.016,2.838-1.235,2.854-2.796
		c0.017-1.561-1.235-2.838-2.796-2.854C543.664,73.966,542.386,75.218,542.37,76.777"/>
	<path fill="#58595B" d="M502.787,76.786c-0.011,1.086,0.86,1.975,1.945,1.985c1.085,0.012,1.974-0.859,1.985-1.944
		c0.011-1.086-0.86-1.975-1.945-1.985C503.687,74.83,502.797,75.701,502.787,76.786"/>
	<path fill="#58595B" d="M551.508,76.786c-0.012,1.086,0.859,1.975,1.944,1.985c1.085,0.012,1.975-0.859,1.985-1.944
		c0.012-1.086-0.859-1.975-1.944-1.985C552.408,74.83,551.519,75.701,551.508,76.786"/>
	<path fill="#58595B" d="M523.772,72.332c0.908,0.009,1.749,0.293,2.447,0.77v-0.007c0.747,0.605,1.697,0.973,2.733,0.982
		c0.807,0.009,1.562-0.202,2.218-0.572c0.784-0.673,1.804-1.078,2.919-1.066c2.442,0.024,4.401,2.024,4.376,4.467
		s-2.024,4.401-4.467,4.376c-0.896-0.009-1.727-0.286-2.418-0.751v0.002c-0.006-0.005-0.012-0.009-0.017-0.013
		c-0.073-0.05-0.144-0.104-0.214-0.158c-0.708-0.502-1.57-0.803-2.504-0.812c-0.854-0.009-1.654,0.226-2.335,0.638
		c-0.771,0.627-1.758,0.999-2.83,0.988c-2.442-0.025-4.401-2.025-4.376-4.468S521.331,72.307,523.772,72.332"/>
	<path fill="#58595B" d="M493.045,76.777c-0.016,1.561,1.236,2.838,2.797,2.854c1.56,0.016,2.838-1.235,2.854-2.796
		c0.017-1.561-1.235-2.838-2.796-2.854C494.339,73.966,493.062,75.218,493.045,76.777"/>
	<path fill="#58595B" d="M591.005,72.438c-0.907-0.01-1.755,0.256-2.462,0.718V73.15c-0.76,0.59-1.717,0.937-2.753,0.926
		c-0.807-0.008-1.559-0.234-2.206-0.617c-0.77-0.689-1.781-1.115-2.896-1.127c-2.441-0.025-4.441,1.934-4.467,4.376
		s1.935,4.442,4.376,4.468c0.896,0.009,1.731-0.252,2.433-0.702v0.002c0,0,0.012-0.008,0.018-0.013
		c0.074-0.048,0.146-0.101,0.216-0.153c0.719-0.487,1.587-0.77,2.521-0.76c0.855,0.009,1.649,0.26,2.321,0.687
		c0.759,0.643,1.737,1.034,2.81,1.046c2.442,0.024,4.442-1.936,4.467-4.377C595.407,74.463,593.448,72.463,591.005,72.438"/>
	<path fill="#58595B" d="M541.065,93.568c-0.025,2.442-2.025,4.401-4.467,4.377c-2.442-0.025-4.401-2.025-4.377-4.468
		c0.025-2.442,2.025-4.401,4.468-4.376C539.131,89.126,541.09,91.126,541.065,93.568"/>
	<path fill="#58595B" d="M529.493,93.552c-0.016,1.561-1.293,2.812-2.854,2.797c-1.561-0.017-2.812-1.294-2.796-2.854
		s1.294-2.812,2.854-2.796C528.257,90.714,529.509,91.992,529.493,93.552"/>
	<path fill="#58595B" d="M573.169,93.552c-0.016,1.561-1.294,2.812-2.854,2.797c-1.56-0.017-2.812-1.294-2.795-2.854
		c0.016-1.561,1.293-2.812,2.854-2.796C571.934,90.714,573.186,91.992,573.169,93.552"/>
	<path fill="#58595B" d="M519.518,93.552c-0.016,1.561-1.294,2.812-2.854,2.797c-1.561-0.017-2.812-1.294-2.796-2.854
		c0.017-1.561,1.294-2.812,2.854-2.796C518.282,90.714,519.534,91.992,519.518,93.552"/>
	<path fill="#58595B" d="M584.264,93.543c-0.012,1.086-0.9,1.957-1.985,1.946c-1.086-0.012-1.956-0.9-1.945-1.986
		c0.011-1.085,0.899-1.956,1.984-1.944C583.404,91.569,584.275,92.458,584.264,93.543"/>
	<path fill="#58595B" d="M508.683,93.543c-0.012,1.086-0.9,1.957-1.985,1.946c-1.086-0.012-1.957-0.9-1.945-1.986
		c0.011-1.085,0.9-1.956,1.985-1.944C507.823,91.569,508.694,92.458,508.683,93.543"/>
	<path fill="#58595B" d="M558.868,89.154c-0.908-0.009-1.755,0.257-2.462,0.72v-0.007c-0.76,0.589-1.717,0.938-2.754,0.926
		c-0.806-0.008-1.558-0.234-2.205-0.618c-0.771-0.688-1.781-1.115-2.896-1.126c-2.442-0.025-4.442,1.934-4.468,4.376
		s1.935,4.442,4.377,4.468c0.896,0.008,1.73-0.252,2.433-0.702v0.002c0.006-0.005,0.011-0.008,0.018-0.013
		c0.073-0.049,0.145-0.102,0.216-0.154c0.719-0.486,1.586-0.769,2.521-0.76c0.854,0.009,1.649,0.261,2.32,0.687
		c0.759,0.643,1.737,1.034,2.81,1.046c2.442,0.024,4.442-1.935,4.468-4.376C563.269,91.18,561.31,89.18,558.868,89.154"/>
	<path fill="#808285" d="M10.804,45.864c0,0.805-0.087,1.462-0.259,1.972c-0.173,0.509-0.441,0.907-0.808,1.194
		c-0.366,0.289-0.837,0.485-1.411,0.593c-0.575,0.108-1.264,0.163-2.067,0.163c-0.761,0-1.432-0.07-2.014-0.206
		c-0.582-0.137-1.067-0.365-1.455-0.688s-0.682-0.747-0.882-1.271c-0.203-0.523-0.303-1.174-0.303-1.949v-2.843H0.271v3.231
		c0,1.78,0.503,3.086,1.508,3.92c1.004,0.832,2.483,1.25,4.436,1.25c2.04,0,3.541-0.421,4.502-1.261
		c0.963-0.839,1.444-2.199,1.444-4.081v-5.579h-1.357V45.864z"/>
	<path fill="#808285" d="M6.215,40.049c0.259,0,0.486-0.093,0.679-0.281c0.194-0.186,0.292-0.409,0.292-0.668
		c0-0.258-0.098-0.476-0.292-0.657c-0.193-0.178-0.42-0.268-0.679-0.268c-0.258,0-0.478,0.089-0.655,0.268
		c-0.18,0.181-0.27,0.399-0.27,0.657c0,0.259,0.09,0.482,0.27,0.668C5.738,39.956,5.957,40.049,6.215,40.049"/>
	<path fill="#808285" d="M41.626,35.353c-0.258,0-0.478,0.089-0.657,0.269s-0.268,0.399-0.268,0.657c0,0.259,0.088,0.48,0.268,0.668
		c0.18,0.186,0.399,0.279,0.657,0.279s0.485-0.093,0.679-0.279c0.193-0.188,0.29-0.41,0.29-0.668c0-0.258-0.096-0.478-0.29-0.657
		C42.111,35.442,41.884,35.353,41.626,35.353"/>
	<path fill="#808285" d="M41.089,47.113h-3.663c-0.446,0-0.808-0.064-1.087-0.194c-0.28-0.129-0.504-0.312-0.668-0.55
		c-0.166-0.236-0.277-0.523-0.334-0.861c-0.058-0.337-0.087-0.715-0.087-1.131v-4.071h-1.334v4.911c0,0.432-0.054,0.772-0.163,1.023
		c-0.107,0.252-0.258,0.443-0.452,0.572c-0.194,0.129-0.42,0.211-0.678,0.248c-0.258,0.036-0.54,0.053-0.84,0.053
		c-0.446,0-0.812-0.064-1.099-0.194c-0.288-0.129-0.51-0.312-0.667-0.55c-0.158-0.236-0.27-0.523-0.334-0.861
		c-0.065-0.337-0.096-0.715-0.096-1.131v-2.929H28.25v3.769c0,0.432-0.047,0.772-0.14,1.023c-0.093,0.252-0.23,0.443-0.408,0.572
		c-0.182,0.129-0.41,0.211-0.69,0.248c-0.28,0.036-0.606,0.053-0.98,0.053c-0.589,0-1.051-0.064-1.388-0.194
		c-0.339-0.129-0.597-0.312-0.776-0.55c-0.18-0.236-0.294-0.523-0.345-0.861c-0.051-0.337-0.076-0.715-0.076-1.131v-2.95H22.09v3.79
		c0,0.432-0.047,0.772-0.14,1.023c-0.093,0.252-0.255,0.443-0.483,0.572c-0.23,0.129-0.528,0.211-0.896,0.248
		c-0.365,0.036-0.829,0.053-1.387,0.053H18.58h-0.001h0h-0.193c-0.388,0-0.703-0.037-0.947-0.107
		c-0.244-0.072-0.435-0.187-0.57-0.345c-0.137-0.157-0.23-0.362-0.281-0.614c-0.05-0.25-0.075-0.556-0.075-0.916V33.113h-1.335
		v12.514c0,0.545,0.071,1,0.215,1.367c0.143,0.366,0.344,0.661,0.603,0.883c0.258,0.224,0.57,0.381,0.938,0.474
		c0.366,0.093,0.771,0.14,1.216,0.14h0.43h0h0.001h0.559c0.646,0,1.182-0.022,1.606-0.064c0.422-0.044,0.778-0.119,1.065-0.227
		c0.287-0.107,0.528-0.244,0.722-0.408c0.194-0.167,0.377-0.371,0.55-0.615c0.129,0.273,0.301,0.495,0.517,0.668
		c0.214,0.172,0.455,0.304,0.722,0.398c0.265,0.093,0.541,0.158,0.829,0.194c0.286,0.035,0.573,0.054,0.861,0.054
		c0.776,0,1.428-0.076,1.959-0.227c0.531-0.15,0.983-0.506,1.356-1.065c0.131,0.272,0.303,0.495,0.519,0.667
		c0.215,0.173,0.456,0.306,0.721,0.398c0.266,0.094,0.542,0.159,0.831,0.194c0.287,0.036,0.573,0.053,0.86,0.053
		c0.604,0,1.132-0.096,1.584-0.29c0.453-0.194,0.822-0.5,1.11-0.916c0.199,0.46,0.534,0.772,1.001,0.938
		c0.413,0.146,0.85,0.216,1.302,0.233c0.044,0.003,0.081,0.014,0.131,0.014h5.061v-8.186h-1.356V47.113z"/>
	<path fill="#808285" d="M50.5,53.197c-0.273-0.222-0.41-0.528-0.41-0.915c0-0.259,0.087-0.503,0.259-0.731
		c0.173-0.23,0.496-0.345,0.969-0.345c0.115,0,0.23,0.006,0.345,0.021c0.115,0.014,0.25,0.043,0.409,0.085v-0.861
		c-0.101-0.03-0.226-0.05-0.378-0.064c-0.15-0.016-0.304-0.022-0.461-0.022c-0.504,0-0.945,0.161-1.326,0.484
		c-0.381,0.323-0.57,0.786-0.57,1.391c0,0.474,0.172,0.904,0.517,1.292h-1.034v0.797h3.683v-0.797h-0.84
		C51.16,53.532,50.772,53.42,50.5,53.197"/>
	<polygon fill="#808285" points="55.926,47.113 51.382,47.113 51.382,36.257 50.025,36.257 50.025,47.113 44.964,47.113 
		44.964,48.492 57.263,48.492 57.263,33.113 55.926,33.113 	"/>
	<rect x="60.279" y="33.113" fill="#808285" width="1.356" height="15.379"/>
	<path fill="#808285" d="M70.418,35.589c0.259,0,0.48-0.093,0.667-0.279c0.188-0.187,0.281-0.41,0.281-0.668
		s-0.093-0.478-0.281-0.657c-0.186-0.18-0.408-0.269-0.667-0.269c-0.258,0-0.482,0.089-0.668,0.269
		c-0.188,0.18-0.28,0.399-0.28,0.657s0.093,0.481,0.28,0.668C69.937,35.497,70.161,35.589,70.418,35.589"/>
	<path fill="#808285" d="M73.347,35.589c0.258,0,0.482-0.093,0.668-0.279c0.185-0.187,0.28-0.41,0.28-0.668s-0.095-0.478-0.28-0.657
		c-0.186-0.18-0.41-0.269-0.668-0.269s-0.48,0.089-0.667,0.269c-0.187,0.18-0.281,0.399-0.281,0.657s0.094,0.481,0.281,0.668
		C72.866,35.497,73.088,35.589,73.347,35.589"/>
	<path fill="#808285" d="M87.391,41.731c-0.331-0.373-0.722-0.667-1.174-0.874c-0.452-0.208-0.944-0.313-1.475-0.313
		c-0.359,0-0.736,0.061-1.131,0.184c-0.396,0.121-0.789,0.345-1.185,0.669c-0.394,0.325-0.775,0.768-1.141,1.329
		c-0.367,0.563-0.708,1.275-1.023,2.14c-0.173,0.476-0.364,0.86-0.572,1.156c-0.208,0.295-0.419,0.522-0.635,0.679
		c-0.217,0.16-0.431,0.268-0.647,0.325c-0.215,0.058-0.416,0.086-0.603,0.086h-0.818H76.47c-0.646,0-1.065-0.197-1.259-0.589
		s-0.292-0.889-0.292-1.489v-6.149h-2.994c-0.518,0-1.037,0.071-1.562,0.215c-0.524,0.143-1.001,0.379-1.433,0.708
		c-0.43,0.33-0.782,0.755-1.055,1.278c-0.274,0.523-0.409,1.17-0.409,1.943c0,0.774,0.144,1.401,0.43,1.88
		c0.289,0.481,0.637,0.853,1.045,1.117c0.41,0.265,0.839,0.448,1.292,0.547c0.452,0.101,0.851,0.151,1.196,0.151
		c0.374,0,0.756-0.036,1.152-0.107c0.395-0.073,0.75-0.165,1.066-0.28c0.029,0.674,0.287,1.203,0.776,1.584
		c0.488,0.379,1.099,0.57,1.831,0.57h0.731h0.862c0.503,0,0.98-0.064,1.432-0.193c0.453-0.129,0.865-0.467,1.239-1.014
		c0.889,0.589,1.675,0.988,2.357,1.196c0.682,0.208,1.362,0.312,2.036,0.312c1.192,0,2.082-0.359,2.671-1.079
		c0.587-0.72,0.883-1.693,0.883-2.916c0-0.633-0.096-1.21-0.29-1.727C87.983,42.553,87.72,42.107,87.391,41.731 M73.584,44.957
		c-0.288,0.116-0.614,0.21-0.98,0.282c-0.366,0.071-0.708,0.107-1.023,0.107c-0.977,0-1.69-0.216-2.144-0.649
		c-0.452-0.431-0.679-1.037-0.679-1.817c0-0.46,0.079-0.857,0.236-1.189c0.159-0.332,0.37-0.6,0.637-0.81
		c0.265-0.209,0.582-0.364,0.947-0.465c0.366-0.103,0.764-0.153,1.196-0.153h1.809V44.957z M86.453,46.768
		c-0.424,0.402-0.995,0.604-1.712,0.604c-0.603,0-1.204-0.119-1.8-0.356c-0.596-0.236-1.194-0.562-1.798-0.979
		c0.259-0.761,0.525-1.404,0.797-1.929c0.273-0.523,0.552-0.947,0.84-1.27c0.287-0.324,0.584-0.557,0.893-0.7
		c0.31-0.143,0.629-0.216,0.958-0.216c0.388,0,0.736,0.079,1.045,0.236c0.309,0.16,0.567,0.367,0.775,0.625
		c0.208,0.259,0.367,0.557,0.474,0.894c0.107,0.337,0.161,0.693,0.161,1.065C87.088,45.692,86.876,46.366,86.453,46.768"/>
	<path fill="#808285" d="M104.233,37.249c0.258,0,0.485-0.093,0.679-0.281c0.194-0.186,0.29-0.41,0.29-0.667
		c0-0.259-0.096-0.476-0.29-0.656c-0.193-0.18-0.42-0.27-0.679-0.27c-0.258,0-0.478,0.09-0.657,0.27s-0.268,0.397-0.268,0.656
		c0,0.258,0.088,0.482,0.268,0.667C103.755,37.156,103.975,37.249,104.233,37.249"/>
	<path fill="#808285" d="M114.75,47.113h-3.014h-0.008h-1.356c0-0.961-0.122-1.877-0.361-2.747c-0.241-0.868-0.614-1.626-1.12-2.272
		s-1.154-1.158-1.943-1.54c-0.791-0.38-1.738-0.57-2.844-0.57c-0.502,0-0.98,0.046-1.432,0.14c-0.453,0.093-0.829,0.182-1.13,0.268
		v1.294c0.33-0.072,0.703-0.137,1.121-0.194c0.416-0.058,0.818-0.087,1.206-0.087c0.689,0,1.343,0.101,1.96,0.301
		c0.616,0.202,1.152,0.528,1.604,0.98c0.452,0.452,0.812,1.042,1.079,1.766c0.264,0.725,0.396,1.612,0.396,2.66h-9.132H99.69
		c-0.446,0-0.876-0.272-1.292-0.818c-0.417-0.547-0.89-1.258-1.421-2.134l-2.585-4.264l-1.313,0.84l2.088,3.059
		c0.258,0.388,0.457,0.747,0.592,1.076c0.138,0.331,0.205,0.662,0.205,0.991c0,0.374-0.151,0.676-0.453,0.905
		c-0.301,0.23-0.817,0.345-1.551,0.345H90.19v1.379h3.166c0.446,0,0.87-0.014,1.272-0.044c0.401-0.029,0.761-0.11,1.076-0.248
		c0.315-0.136,0.584-0.34,0.808-0.613c0.222-0.272,0.369-0.654,0.441-1.143c0.458,0.733,0.894,1.257,1.303,1.573
		c0.41,0.316,0.885,0.474,1.433,0.474h0.085h11.954h4.378V33.113h-1.356V47.113z"/>
	<path fill="#808285" d="M130.876,55.579c-0.258,0-0.48,0.093-0.667,0.279c-0.187,0.188-0.281,0.41-0.281,0.668
		c0,0.259,0.094,0.481,0.281,0.669c0.186,0.186,0.408,0.278,0.667,0.278c0.259,0,0.482-0.093,0.668-0.278
		c0.186-0.188,0.28-0.41,0.28-0.669c0-0.258-0.095-0.48-0.28-0.668C131.359,55.671,131.135,55.579,130.876,55.579"/>
	<path fill="#808285" d="M127.947,55.579c-0.259,0-0.48,0.093-0.667,0.279c-0.188,0.188-0.281,0.41-0.281,0.668
		c0,0.259,0.093,0.481,0.281,0.669c0.186,0.186,0.408,0.278,0.667,0.278c0.258,0,0.482-0.093,0.668-0.278
		c0.185-0.188,0.28-0.41,0.28-0.669c0-0.258-0.095-0.48-0.28-0.668C128.43,55.671,128.205,55.579,127.947,55.579"/>
	<path fill="#808285" d="M141.323,46.316c-0.517-0.531-0.775-1.22-0.775-2.068c0-0.876,0.298-1.568,0.894-2.078
		c0.597-0.509,1.411-0.764,2.445-0.764c0.431,0,0.793,0.022,1.087,0.064c0.294,0.043,0.564,0.101,0.809,0.172v-1.486
		c-0.202-0.07-0.468-0.129-0.797-0.171c-0.331-0.044-0.719-0.064-1.163-0.064c-0.561,0-1.117,0.085-1.668,0.258
		c-0.554,0.172-1.049,0.438-1.488,0.798c-0.438,0.358-0.795,0.807-1.076,1.346c-0.28,0.537-0.421,1.174-0.421,1.905
		c0,0.533,0.101,1.053,0.303,1.561c0.2,0.511,0.48,0.952,0.84,1.326h-3.124c-0.003,0-0.006,0.001-0.006,0.001l-0.014-0.001h-1.725
		c-0.373,0-0.778-0.029-1.216-0.086c-0.438-0.057-0.884-0.133-1.336-0.226c-0.453-0.093-0.896-0.197-1.335-0.312
		c-0.438-0.115-0.851-0.238-1.238-0.367v1.354l0.646,0.172c0.46,0.129,0.943,0.276,1.454,0.439c0.509,0.166,0.975,0.354,1.399,0.569
		c0.424,0.214,0.775,0.454,1.056,0.718c0.281,0.265,0.419,0.555,0.419,0.869c0,0.372-0.157,0.693-0.472,0.966
		c-0.317,0.273-0.744,0.496-1.283,0.676c-0.537,0.179-1.166,0.311-1.885,0.397c-0.717,0.085-1.478,0.127-2.282,0.127
		c-2.153,0-3.712-0.329-4.674-0.987c-0.962-0.658-1.444-1.697-1.444-3.113v-2.9h-1.313v3.231c0,0.733,0.11,1.412,0.334,2.036
		c0.222,0.624,0.613,1.167,1.174,1.626c0.56,0.46,1.315,0.823,2.261,1.087c0.948,0.266,2.155,0.398,3.618,0.398
		c1.321,0,2.438-0.096,3.351-0.29c0.911-0.193,1.649-0.446,2.219-0.754c0.565-0.31,0.976-0.664,1.228-1.066
		c0.25-0.403,0.376-0.819,0.376-1.249c0-0.273-0.068-0.582-0.204-0.927c-0.137-0.346-0.385-0.683-0.744-1.012h1.617l0.011-0.001
		c0.003,0,0.006,0.001,0.009,0.001h9.564v-1.379h-3.037C142.637,47.113,141.84,46.847,141.323,46.316"/>
	<path fill="#808285" d="M156.919,37.227c0.258,0,0.484-0.093,0.678-0.279c0.193-0.188,0.292-0.41,0.292-0.668
		s-0.098-0.478-0.292-0.657c-0.194-0.18-0.419-0.269-0.678-0.269s-0.478,0.089-0.657,0.269s-0.27,0.399-0.27,0.657
		s0.09,0.48,0.27,0.668C156.441,37.134,156.661,37.227,156.919,37.227"/>
	<path fill="#808285" d="M190.755,39.984c-1.005,0-1.938,0.214-2.8,0.646c-0.86,0.43-1.637,0.986-2.326,1.668
		c-0.688,0.683-1.286,1.447-1.787,2.295c-0.502,0.848-0.89,1.688-1.163,2.52c-0.46,0-0.823-0.064-1.089-0.194
		c-0.265-0.129-0.467-0.312-0.602-0.55c-0.137-0.236-0.224-0.523-0.259-0.861c-0.037-0.337-0.055-0.715-0.055-1.131v-2.477h-1.356
		v3.316c0,0.432-0.046,0.772-0.141,1.023c-0.092,0.252-0.254,0.443-0.484,0.572c-0.23,0.129-0.528,0.211-0.893,0.248
		c-0.368,0.036-0.83,0.053-1.39,0.053h-0.582h-1.4v-2.196c0-1.523-0.388-2.726-1.164-3.609c-0.775-0.883-1.852-1.324-3.23-1.324
		c-1.293,0-2.498,0.388-3.619,1.163c-1.121,0.775-2.089,1.867-2.907,3.273V33.113h-1.356v14h-2.584c-0.776,0-1.3-0.244-1.573-0.733
		c-0.273-0.487-0.41-1.155-0.41-2.003v-4.071h-1.356v5.062c0,0.43-0.064,0.765-0.194,1.001c-0.129,0.238-0.301,0.41-0.517,0.516
		c-0.214,0.109-0.463,0.174-0.742,0.194c-0.281,0.022-0.572,0.033-0.873,0.033h-1.421h-0.194c-0.388,0-0.703-0.037-0.947-0.107
		c-0.244-0.072-0.435-0.187-0.57-0.345c-0.138-0.157-0.23-0.362-0.28-0.614c-0.051-0.25-0.076-0.556-0.076-0.916V33.113h-1.335
		v12.514c0,0.545,0.071,1,0.214,1.367c0.144,0.366,0.346,0.661,0.604,0.883c0.259,0.224,0.57,0.381,0.938,0.474
		c0.366,0.093,0.771,0.14,1.216,0.14h0.431h1.615c0.402,0,0.761-0.019,1.078-0.054c0.315-0.036,0.599-0.101,0.849-0.194
		c0.252-0.094,0.478-0.224,0.679-0.387c0.201-0.166,0.388-0.378,0.56-0.637c0.202,0.474,0.511,0.805,0.927,0.991
		c0.311,0.139,0.652,0.209,1.011,0.245c0.094,0.023,0.201,0.036,0.324,0.036h16.305h0.539c0.631,0,1.169-0.019,1.615-0.054
		c0.445-0.036,0.821-0.101,1.13-0.194c0.309-0.094,0.561-0.224,0.755-0.387c0.193-0.166,0.354-0.378,0.484-0.637
		c0.202,0.488,0.513,0.822,0.937,1.002c0.424,0.18,1.001,0.27,1.734,0.27H195.3v-3.575c0-1.565-0.399-2.779-1.195-3.641
		C193.308,40.414,192.19,39.984,190.755,39.984 M173.093,47.113h-9.671c0.23-0.632,0.545-1.285,0.947-1.96
		c0.401-0.674,0.865-1.289,1.39-1.84c0.524-0.553,1.112-1.011,1.767-1.368c0.652-0.36,1.346-0.54,2.079-0.54
		c0.66,0,1.213,0.101,1.658,0.301c0.445,0.202,0.803,0.482,1.077,0.84c0.273,0.359,0.467,0.775,0.582,1.249
		c0.115,0.475,0.172,0.991,0.172,1.551V47.113z M193.921,47.113h-9.756c0.229-0.689,0.546-1.371,0.948-2.047
		c0.401-0.675,0.879-1.285,1.432-1.83c0.554-0.547,1.16-0.988,1.82-1.326c0.66-0.337,1.365-0.506,2.11-0.506
		c0.632,0,1.167,0.096,1.606,0.29c0.438,0.194,0.792,0.464,1.065,0.809c0.272,0.345,0.471,0.761,0.592,1.25
		c0.123,0.488,0.183,1.02,0.183,1.593V47.113z"/>
	<polygon fill="#808285" points="208.524,47.113 203.979,47.113 203.979,36.257 202.622,36.257 202.622,47.113 197.561,47.113 
		197.561,48.492 209.86,48.492 209.86,33.113 208.524,33.113 	"/>
	<rect x="212.876" y="33.113" fill="#808285" width="1.356" height="15.379"/>
	<path fill="#808285" d="M223.693,46.757c-0.495-0.365-0.742-0.914-0.742-1.646c0-0.231,0.034-0.461,0.107-0.69
		c0.071-0.229,0.191-0.437,0.354-0.625c0.166-0.186,0.388-0.34,0.668-0.463c0.28-0.121,0.635-0.183,1.066-0.183
		c0.402,0,0.796,0.051,1.184,0.152v-1.25c-0.158-0.028-0.363-0.062-0.613-0.098c-0.252-0.035-0.5-0.054-0.744-0.054
		c-0.416,0-0.814,0.065-1.194,0.194c-0.381,0.129-0.717,0.327-1.007,0.592c-0.292,0.266-0.524,0.596-0.701,0.991
		c-0.175,0.396-0.263,0.851-0.263,1.368c0,0.848,0.344,1.601,1.032,2.261h-1.936v1.186h6.203v-1.186h-1.378
		C224.868,47.307,224.188,47.125,223.693,46.757"/>
	<path fill="#808285" d="M233.967,38.735c-0.166,0.258-0.27,0.524-0.312,0.797c0.818,0.416,1.618,0.879,2.401,1.388
		c0.783,0.51,1.48,1.031,2.09,1.562c0.609,0.533,1.098,1.056,1.464,1.573c0.367,0.517,0.55,0.977,0.55,1.379
		c0,0.331-0.054,0.604-0.163,0.818c-0.107,0.215-0.258,0.387-0.452,0.517c-0.194,0.129-0.424,0.219-0.688,0.27
		c-0.266,0.05-0.556,0.075-0.873,0.075h-5.297h-0.194c-0.388,0-0.703-0.036-0.947-0.107c-0.244-0.073-0.435-0.188-0.57-0.345
		c-0.137-0.158-0.23-0.363-0.28-0.614c-0.051-0.251-0.076-0.557-0.076-0.916V33.114h-1.334v12.513c0,0.545,0.07,1.001,0.214,1.368
		c0.144,0.365,0.345,0.66,0.604,0.882c0.259,0.224,0.57,0.381,0.938,0.474c0.366,0.093,0.771,0.141,1.217,0.141h0.431h5.254
		c0.733,0,1.326-0.098,1.778-0.292c0.452-0.193,0.807-0.433,1.065-0.721c0.259-0.287,0.432-0.602,0.517-0.947
		c0.086-0.345,0.129-0.668,0.129-0.969c0-0.432-0.107-0.89-0.323-1.379c-0.215-0.488-0.567-1.005-1.054-1.55
		c-0.488-0.545-1.118-1.121-1.885-1.724c-0.769-0.602-1.713-1.228-2.833-1.874l6.936-3.037v-1.335l-7.905,3.511
		C234.264,38.291,234.132,38.476,233.967,38.735"/>
	<path fill="#808285" d="M247.117,37.227c0.259,0,0.486-0.093,0.68-0.279c0.193-0.188,0.29-0.41,0.29-0.668s-0.096-0.478-0.29-0.657
		c-0.194-0.18-0.421-0.269-0.68-0.269c-0.258,0-0.478,0.089-0.657,0.269c-0.18,0.18-0.268,0.399-0.268,0.657s0.088,0.48,0.268,0.668
		C246.639,37.134,246.859,37.227,247.117,37.227"/>
	<path fill="#808285" d="M256.852,47.113h-3.704h-0.085c-0.446,0-0.876-0.272-1.292-0.818c-0.418-0.547-0.891-1.258-1.422-2.134
		l-2.586-4.264l-1.312,0.84l2.088,3.059c0.258,0.388,0.457,0.747,0.592,1.076c0.138,0.331,0.206,0.662,0.206,0.991
		c0,0.374-0.151,0.676-0.453,0.905c-0.3,0.23-0.817,0.345-1.55,0.345h-3.769v1.379h3.166c0.446,0,0.87-0.014,1.271-0.044
		c0.402-0.029,0.761-0.11,1.076-0.248c0.315-0.136,0.584-0.34,0.809-0.613c0.222-0.272,0.369-0.654,0.441-1.143
		c0.458,0.733,0.894,1.257,1.303,1.573c0.41,0.316,0.886,0.474,1.433,0.474h0.085h5.061V33.113h-1.357V47.113z"/>
	<rect x="261.225" y="33.113" fill="#808285" width="1.356" height="15.379"/>
	<path fill="#808285" d="M272.414,41.782c-0.309-0.495-0.722-0.882-1.239-1.163c-0.517-0.28-1.149-0.42-1.895-0.42
		c-0.675,0-1.275,0.129-1.798,0.387c-0.525,0.259-0.967,0.604-1.326,1.036c-0.36,0.43-0.628,0.919-0.807,1.464
		c-0.18,0.545-0.27,1.098-0.27,1.658c0,0.704,0.1,1.294,0.301,1.767c0.202,0.475,0.477,0.859,0.829,1.153
		c0.353,0.293,0.761,0.506,1.228,0.635c0.466,0.129,0.974,0.194,1.519,0.194c0.632,0,1.196-0.083,1.691-0.248
		c0.495-0.165,0.916-0.356,1.26-0.572v0.84c0,0.705-0.126,1.272-0.378,1.702c-0.25,0.432-0.601,0.764-1.054,1.002
		c-0.453,0.237-0.991,0.398-1.616,0.483c-0.625,0.087-1.318,0.129-2.078,0.129h-0.432v1.379h0.497c1.034,0,1.949-0.082,2.745-0.248
		c0.797-0.165,1.469-0.449,2.014-0.851c0.545-0.401,0.962-0.94,1.25-1.615c0.286-0.676,0.43-1.53,0.43-2.564v-2.109
		c0-0.82-0.068-1.573-0.203-2.262C272.945,42.87,272.722,42.277,272.414,41.782 M271.908,46.295
		c-0.258,0.214-0.629,0.416-1.109,0.602c-0.482,0.187-1.03,0.28-1.647,0.28c-0.819,0-1.484-0.202-1.993-0.604
		c-0.51-0.401-0.764-1.076-0.764-2.025c0-0.33,0.049-0.674,0.15-1.034c0.1-0.358,0.261-0.689,0.485-0.99
		c0.222-0.302,0.512-0.55,0.871-0.744c0.359-0.193,0.79-0.29,1.292-0.29c0.502,0,0.927,0.096,1.271,0.29
		c0.345,0.194,0.624,0.463,0.84,0.808c0.216,0.344,0.369,0.753,0.463,1.228c0.093,0.473,0.14,0.99,0.14,1.551V46.295z"/>
	<path fill="#808285" d="M289.306,38.498c0.258,0,0.48-0.094,0.668-0.28c0.186-0.186,0.279-0.41,0.279-0.668
		c0-0.259-0.093-0.478-0.279-0.657c-0.188-0.178-0.41-0.268-0.668-0.268s-0.482,0.09-0.668,0.268c-0.186,0.18-0.28,0.398-0.28,0.657
		c0,0.258,0.095,0.482,0.28,0.668C288.824,38.404,289.047,38.498,289.306,38.498"/>
	<path fill="#808285" d="M286.376,38.498c0.258,0,0.48-0.094,0.668-0.28c0.186-0.186,0.279-0.41,0.279-0.668
		c0-0.259-0.093-0.478-0.279-0.657c-0.188-0.178-0.41-0.268-0.668-0.268c-0.258,0-0.481,0.09-0.668,0.268
		c-0.186,0.18-0.279,0.398-0.279,0.657c0,0.258,0.093,0.482,0.279,0.668C285.896,38.404,286.118,38.498,286.376,38.498"/>
	<path fill="#808285" d="M295.25,47.113h-11.114c-0.761,0-1.393-0.025-1.895-0.076c-0.502-0.05-0.9-0.154-1.195-0.312
		s-0.5-0.396-0.615-0.711c-0.115-0.315-0.172-0.733-0.172-1.249v-2.563h-1.356v3.231c0,0.56,0.071,1.034,0.216,1.421
		c0.144,0.387,0.38,0.704,0.711,0.947c0.33,0.244,0.771,0.421,1.324,0.528c0.553,0.109,1.239,0.163,2.058,0.163h13.396v-8.186
		h-1.357V47.113z"/>
	<path fill="#808285" d="M313,50.409c-0.259,0-0.482,0.092-0.669,0.28c-0.187,0.186-0.28,0.41-0.28,0.667
		c0,0.259,0.094,0.481,0.28,0.667c0.187,0.188,0.41,0.281,0.669,0.281c0.258,0,0.479-0.094,0.666-0.281
		c0.188-0.186,0.281-0.408,0.281-0.667c0-0.258-0.094-0.481-0.281-0.667C313.48,50.501,313.258,50.409,313,50.409"/>
	<path fill="#808285" d="M313.753,48.492v-8.186h-1.356v6.807h-3.706l0,0h-0.001h-1.399v-1.292c0-0.848-0.072-1.618-0.216-2.314
		c-0.144-0.697-0.373-1.29-0.688-1.778c-0.317-0.488-0.729-0.865-1.238-1.131c-0.511-0.265-1.132-0.399-1.865-0.399
		c-0.66,0-1.247,0.134-1.765,0.399c-0.517,0.266-0.957,0.614-1.314,1.044c-0.358,0.432-0.634,0.924-0.829,1.477
		c-0.194,0.552-0.291,1.116-0.291,1.689c0,0.691,0.104,1.269,0.312,1.735c0.208,0.466,0.492,0.848,0.851,1.141
		c0.359,0.294,0.783,0.503,1.271,0.625c0.487,0.122,1.019,0.183,1.594,0.183h2.801c0,0.702-0.127,1.27-0.378,1.702
		c-0.252,0.43-0.603,0.765-1.056,1c-0.451,0.236-0.99,0.399-1.615,0.486c-0.625,0.085-1.317,0.129-2.078,0.129h-0.43v1.377h0.494
		c0.976,0,1.852-0.071,2.627-0.214s1.433-0.395,1.972-0.755c0.539-0.359,0.961-0.839,1.27-1.441c0.309-0.604,0.493-1.365,0.55-2.283
		h1.422h0.001l0,0H313.753z M305.913,47.113h-2.672c-0.919,0-1.623-0.197-2.11-0.593c-0.488-0.394-0.732-1.022-0.732-1.885
		c0-0.373,0.057-0.747,0.172-1.12c0.115-0.372,0.291-0.71,0.528-1.012c0.236-0.301,0.524-0.545,0.861-0.733
		c0.337-0.186,0.736-0.279,1.194-0.279c0.503,0,0.931,0.093,1.282,0.279c0.353,0.188,0.636,0.45,0.852,0.786
		c0.215,0.337,0.372,0.744,0.474,1.217c0.101,0.474,0.151,1.005,0.151,1.594V47.113z"/>
	<path fill="#808285" d="M323.65,41.782c-0.31-0.495-0.723-0.882-1.239-1.163c-0.517-0.28-1.149-0.42-1.896-0.42
		c-0.675,0-1.275,0.129-1.798,0.387c-0.525,0.259-0.967,0.604-1.325,1.036c-0.36,0.43-0.629,0.919-0.807,1.464
		c-0.181,0.545-0.27,1.098-0.27,1.658c0,0.704,0.099,1.294,0.301,1.767c0.201,0.475,0.477,0.859,0.829,1.153
		c0.353,0.293,0.761,0.506,1.227,0.635c0.467,0.129,0.975,0.194,1.52,0.194c0.632,0,1.195-0.083,1.691-0.248
		c0.494-0.165,0.915-0.356,1.26-0.572v0.84c0,0.705-0.126,1.272-0.378,1.702c-0.251,0.432-0.602,0.764-1.054,1.002
		c-0.453,0.237-0.991,0.398-1.616,0.483c-0.625,0.087-1.318,0.129-2.078,0.129h-0.432v1.379h0.496c1.034,0,1.95-0.082,2.745-0.248
		c0.798-0.165,1.469-0.449,2.015-0.851c0.545-0.401,0.962-0.94,1.249-1.615c0.286-0.676,0.431-1.53,0.431-2.564v-2.109
		c0-0.82-0.067-1.573-0.203-2.262C324.18,42.87,323.958,42.277,323.65,41.782 M323.143,46.295c-0.258,0.214-0.629,0.416-1.108,0.602
		c-0.482,0.187-1.031,0.28-1.648,0.28c-0.817,0-1.482-0.202-1.992-0.604c-0.511-0.401-0.765-1.076-0.765-2.025
		c0-0.33,0.049-0.674,0.15-1.034c0.101-0.358,0.262-0.689,0.484-0.99c0.223-0.302,0.513-0.55,0.872-0.744
		c0.359-0.193,0.789-0.29,1.292-0.29s0.927,0.096,1.271,0.29c0.346,0.194,0.624,0.463,0.84,0.808
		c0.217,0.344,0.369,0.753,0.464,1.228c0.093,0.473,0.14,0.99,0.14,1.551V46.295z"/>
	<path fill="#808285" d="M343.239,47.113h-3.683c-0.775,0-1.3-0.244-1.573-0.733c-0.272-0.487-0.409-1.155-0.409-2.003V33.113
		h-1.357v12.255c0,0.43-0.064,0.765-0.193,1.001c-0.129,0.238-0.301,0.41-0.517,0.516c-0.215,0.109-0.464,0.174-0.742,0.194
		c-0.281,0.022-0.572,0.033-0.873,0.033h-1.42c-0.777,0-1.301-0.244-1.572-0.733c-0.273-0.487-0.41-1.155-0.41-2.003v-2.929h-1.314
		v5.794c0,0.776-0.028,1.447-0.085,2.014c-0.059,0.568-0.19,1.037-0.398,1.411c-0.208,0.373-0.515,0.653-0.916,0.839
		c-0.401,0.188-0.948,0.294-1.638,0.324v1.378c0.877-0.028,1.594-0.144,2.154-0.345c0.56-0.2,1.001-0.523,1.324-0.969
		c0.323-0.445,0.55-1.023,0.679-1.733c0.13-0.711,0.194-1.59,0.194-2.639c0.314,0.645,0.975,0.967,1.975,0.969l0.006,0h1.615
		c0.402,0,0.762-0.019,1.078-0.054c0.315-0.036,0.599-0.101,0.85-0.194c0.252-0.094,0.477-0.224,0.68-0.387
		c0.199-0.166,0.387-0.378,0.559-0.637c0.202,0.474,0.51,0.805,0.927,0.991c0.36,0.162,0.76,0.24,1.185,0.261
		c0.057,0.007,0.107,0.019,0.172,0.019h5.062V33.113h-1.356V47.113z"/>
	<path fill="#808285" d="M357.902,38.498c0.259,0,0.481-0.094,0.669-0.28c0.186-0.186,0.278-0.41,0.278-0.668
		c0-0.259-0.093-0.478-0.278-0.657c-0.188-0.178-0.41-0.268-0.669-0.268c-0.258,0-0.48,0.09-0.668,0.268
		c-0.186,0.18-0.279,0.398-0.279,0.657c0,0.258,0.094,0.482,0.279,0.668C357.421,38.404,357.644,38.498,357.902,38.498"/>
	<path fill="#808285" d="M360.832,38.498c0.259,0,0.48-0.094,0.669-0.28c0.185-0.186,0.278-0.41,0.278-0.668
		c0-0.259-0.094-0.478-0.278-0.657c-0.188-0.178-0.41-0.268-0.669-0.268c-0.258,0-0.481,0.09-0.668,0.268
		c-0.186,0.18-0.281,0.398-0.281,0.657c0,0.258,0.096,0.482,0.281,0.668C360.35,38.404,360.574,38.498,360.832,38.498"/>
	<path fill="#808285" d="M366.776,47.113h-11.113c-0.763,0-1.395-0.025-1.896-0.076c-0.502-0.05-0.9-0.154-1.196-0.312
		c-0.294-0.158-0.499-0.396-0.614-0.711c-0.115-0.315-0.172-0.733-0.172-1.249v-2.563h-1.356v3.231c0,0.56,0.07,1.034,0.216,1.421
		c0.144,0.387,0.38,0.704,0.711,0.947c0.329,0.244,0.771,0.421,1.323,0.528c0.553,0.109,1.238,0.163,2.059,0.163h13.396v-8.186
		h-1.356V47.113z"/>
	<rect x="371.149" y="33.113" fill="#808285" width="1.356" height="15.379"/>
	<path fill="#808285" d="M377.394,47.242c0,0.775-0.028,1.447-0.087,2.014c-0.058,0.567-0.19,1.037-0.398,1.411
		c-0.208,0.373-0.518,0.654-0.926,0.84c-0.409,0.187-0.959,0.294-1.648,0.323v1.378c0.877-0.028,1.6-0.151,2.166-0.366
		c0.567-0.216,1.015-0.55,1.346-1.002c0.329-0.452,0.56-1.034,0.688-1.744c0.129-0.711,0.194-1.584,0.194-2.618v-6.031h-1.335
		V47.242z"/>
	<path fill="#808285" d="M395.552,41.731c-0.331-0.373-0.722-0.667-1.174-0.874c-0.453-0.208-0.944-0.313-1.476-0.313
		c-0.359,0-0.736,0.061-1.131,0.184c-0.396,0.121-0.79,0.345-1.186,0.669c-0.394,0.325-0.774,0.768-1.141,1.329
		c-0.367,0.563-0.707,1.275-1.022,2.14c-0.174,0.476-0.364,0.86-0.572,1.156c-0.208,0.295-0.419,0.522-0.635,0.679
		c-0.216,0.16-0.431,0.268-0.646,0.325c-0.216,0.058-0.416,0.086-0.604,0.086h-0.817l-0.001,0l-0.001,0h-0.194
		c-0.388,0-0.703-0.037-0.946-0.107c-0.245-0.073-0.436-0.188-0.57-0.345c-0.139-0.158-0.23-0.362-0.281-0.615
		c-0.051-0.25-0.076-0.556-0.076-0.916V33.114h-1.334v12.514c0,0.545,0.07,1,0.215,1.368c0.144,0.366,0.345,0.66,0.604,0.882
		c0.258,0.224,0.57,0.381,0.938,0.475c0.365,0.093,0.77,0.14,1.216,0.14h0.431h0.001h0.001h0.861c0.503,0,0.98-0.064,1.433-0.193
		c0.452-0.129,0.865-0.467,1.238-1.014c0.89,0.589,1.676,0.988,2.358,1.196c0.682,0.208,1.361,0.312,2.035,0.312
		c1.191,0,2.082-0.359,2.672-1.079c0.588-0.72,0.882-1.693,0.882-2.916c0-0.633-0.096-1.21-0.29-1.727
		C396.144,42.553,395.881,42.107,395.552,41.731 M394.615,46.768c-0.424,0.402-0.994,0.604-1.712,0.604
		c-0.604,0-1.203-0.119-1.799-0.356c-0.596-0.236-1.195-0.562-1.799-0.979c0.259-0.761,0.525-1.404,0.798-1.929
		c0.272-0.523,0.552-0.947,0.84-1.27c0.287-0.324,0.585-0.557,0.894-0.7c0.309-0.143,0.629-0.216,0.958-0.216
		c0.388,0,0.736,0.079,1.045,0.236c0.309,0.16,0.567,0.367,0.775,0.625c0.208,0.259,0.367,0.557,0.474,0.894
		c0.107,0.337,0.161,0.693,0.161,1.065C395.25,45.692,395.039,46.366,394.615,46.768"/>
	<path fill="#808285" d="M404.209,53.197c-0.272-0.222-0.409-0.528-0.409-0.915c0-0.259,0.087-0.503,0.259-0.731
		c0.173-0.23,0.496-0.345,0.969-0.345c0.114,0,0.23,0.006,0.344,0.021c0.116,0.014,0.252,0.043,0.411,0.085v-0.861
		c-0.102-0.03-0.228-0.05-0.378-0.064c-0.15-0.016-0.305-0.022-0.462-0.022c-0.505,0-0.946,0.161-1.325,0.484
		c-0.382,0.323-0.571,0.786-0.571,1.391c0,0.474,0.172,0.904,0.518,1.292h-1.034v0.797h3.683v-0.797h-0.841
		C404.87,53.532,404.482,53.42,404.209,53.197"/>
	<polygon fill="#808285" points="409.637,47.113 405.092,47.113 405.092,36.257 403.736,36.257 403.736,47.113 398.673,47.113 
		398.673,48.492 410.973,48.492 410.973,33.113 409.637,33.113 	"/>
	<rect x="413.99" y="33.113" fill="#808285" width="1.356" height="15.379"/>
	<path fill="#808285" d="M426.52,37.227c0.258,0,0.48-0.093,0.666-0.279c0.188-0.188,0.28-0.41,0.28-0.668s-0.093-0.478-0.28-0.657
		c-0.186-0.18-0.408-0.269-0.666-0.269c-0.259,0-0.482,0.089-0.669,0.269s-0.28,0.399-0.28,0.657s0.094,0.48,0.28,0.668
		C426.038,37.134,426.261,37.227,426.52,37.227"/>
	<path fill="#808285" d="M423.589,37.227c0.259,0,0.481-0.093,0.669-0.279c0.186-0.188,0.278-0.41,0.278-0.668
		s-0.093-0.478-0.278-0.657c-0.188-0.18-0.41-0.269-0.669-0.269c-0.258,0-0.481,0.089-0.668,0.269
		c-0.186,0.18-0.28,0.399-0.28,0.657s0.095,0.48,0.28,0.668C423.108,37.134,423.332,37.227,423.589,37.227"/>
	<path fill="#808285" d="M428.038,41.269c-0.352-0.424-0.768-0.749-1.248-0.971c-0.482-0.224-0.995-0.335-1.541-0.335
		c-0.633,0-1.199,0.147-1.701,0.442c-0.504,0.294-0.932,0.681-1.282,1.155c-0.352,0.476-0.622,1.003-0.807,1.587
		c-0.188,0.583-0.28,1.155-0.28,1.716c0,0.633,0.097,1.185,0.291,1.653c0.193,0.468,0.462,0.855,0.807,1.166
		c0.345,0.309,0.758,0.539,1.239,0.69c0.479,0.152,1.017,0.228,1.604,0.228c0.733,0,1.354-0.107,1.864-0.324
		c0.51-0.216,0.928-0.498,1.259-0.843s0.571-0.741,0.722-1.187c0.151-0.447,0.228-0.907,0.228-1.383c0-0.761-0.105-1.445-0.314-2.05
		C428.668,42.208,428.389,41.694,428.038,41.269 M427.737,45.993c-0.166,0.317-0.382,0.567-0.646,0.755
		c-0.267,0.186-0.567,0.32-0.905,0.396c-0.337,0.081-0.679,0.12-1.022,0.12c-0.373,0-0.729-0.047-1.066-0.141
		c-0.338-0.092-0.633-0.244-0.883-0.452c-0.252-0.208-0.452-0.475-0.604-0.797c-0.151-0.324-0.227-0.714-0.227-1.174
		c0-0.444,0.069-0.871,0.204-1.281c0.138-0.41,0.327-0.769,0.571-1.078c0.244-0.308,0.538-0.552,0.884-0.731
		c0.345-0.18,0.725-0.269,1.141-0.269c0.374,0,0.729,0.079,1.066,0.236c0.338,0.159,0.636,0.388,0.894,0.69
		c0.259,0.302,0.463,0.664,0.615,1.088c0.149,0.424,0.225,0.901,0.225,1.433C427.983,45.276,427.902,45.678,427.737,45.993"/>
	<path fill="#808285" d="M434.251,37.227c0.259,0,0.484-0.093,0.679-0.279c0.193-0.188,0.291-0.41,0.291-0.668
		s-0.098-0.478-0.291-0.657c-0.194-0.18-0.42-0.269-0.679-0.269c-0.258,0-0.477,0.089-0.657,0.269
		c-0.179,0.18-0.269,0.399-0.269,0.657s0.09,0.48,0.269,0.668C433.775,37.134,433.994,37.227,434.251,37.227"/>
	<path fill="#808285" d="M440.917,37.241c-0.338-0.249-0.506-0.624-0.506-1.122c0-0.158,0.025-0.318,0.075-0.482
		c0.051-0.164,0.133-0.313,0.247-0.449c0.116-0.134,0.27-0.246,0.464-0.331c0.193-0.085,0.435-0.128,0.722-0.128
		c0.144,0,0.28,0.011,0.409,0.032c0.13,0.022,0.265,0.047,0.409,0.076v-0.84c-0.115-0.028-0.258-0.054-0.43-0.076
		c-0.173-0.022-0.338-0.032-0.496-0.032c-0.589,0-1.098,0.182-1.529,0.545c-0.431,0.364-0.646,0.911-0.646,1.639
		c0,0.584,0.238,1.099,0.71,1.542h-1.334v0.84h4.264v-0.84h-0.947C441.725,37.614,441.254,37.489,440.917,37.241"/>
	<path fill="#808285" d="M440.626,47.113h-3.703c-0.777,0-1.3-0.244-1.573-0.733c-0.272-0.487-0.409-1.155-0.409-2.003v-2.929
		h-1.314v5.794c0,0.776-0.028,1.447-0.085,2.014c-0.059,0.568-0.191,1.037-0.398,1.411c-0.209,0.373-0.514,0.653-0.916,0.839
		c-0.402,0.188-0.948,0.294-1.637,0.324v1.378c0.875-0.028,1.593-0.144,2.154-0.345c0.559-0.2,1-0.523,1.323-0.969
		c0.322-0.445,0.55-1.023,0.679-1.733c0.13-0.711,0.194-1.59,0.194-2.639c0.313,0.645,0.974,0.967,1.975,0.969l0.006,0h5.062v-8.186
		h-1.356V47.113z"/>
	<path fill="#808285" d="M454.174,50.43c-0.259,0-0.48,0.093-0.669,0.281c-0.187,0.186-0.278,0.408-0.278,0.667
		c0,0.259,0.092,0.48,0.278,0.668c0.188,0.186,0.41,0.28,0.669,0.28c0.258,0,0.48-0.094,0.668-0.28
		c0.186-0.188,0.28-0.41,0.28-0.668c0-0.258-0.095-0.481-0.28-0.667C454.655,50.523,454.432,50.43,454.174,50.43"/>
	<path fill="#808285" d="M458.729,44.355c-0.236-0.86-0.609-1.615-1.12-2.261c-0.509-0.646-1.159-1.159-1.949-1.54
		c-0.789-0.38-1.737-0.571-2.843-0.571c-0.502,0-0.98,0.046-1.433,0.14c-0.452,0.093-0.828,0.183-1.131,0.268v1.294
		c0.331-0.073,0.704-0.137,1.12-0.194c0.416-0.058,0.82-0.086,1.207-0.086c0.689,0,1.342,0.101,1.959,0.301
		c0.617,0.201,1.153,0.527,1.605,0.979c0.452,0.453,0.81,1.042,1.076,1.767c0.267,0.725,0.399,1.612,0.399,2.659h-9.155h-0.193
		c-0.388,0-0.702-0.036-0.947-0.107c-0.244-0.073-0.435-0.188-0.57-0.345c-0.137-0.158-0.229-0.362-0.28-0.615
		c-0.05-0.251-0.075-0.556-0.075-0.916V33.114h-1.336v12.514c0,0.545,0.072,1,0.216,1.368c0.143,0.365,0.345,0.66,0.603,0.882
		c0.259,0.224,0.571,0.381,0.938,0.475c0.366,0.093,0.771,0.14,1.218,0.14h0.429h10.619v-1.401
		C459.084,46.13,458.966,45.218,458.729,44.355"/>
	<path fill="#808285" d="M-0.055,73.304v-8.56h1.662v8.454c0,3.176,1.682,4.963,4.5,4.963c2.713,0,4.438-1.64,4.438-4.857v-8.56
		h1.661v8.434c0,4.289-2.46,6.519-6.14,6.519C2.427,79.696-0.055,77.467-0.055,73.304"/>
	<path fill="#808285" d="M24.365,64.639h1.556l6.708,14.827h-1.787l-1.724-3.891h-8.013l-1.746,3.891h-1.703L24.365,64.639z
		 M28.465,74.082l-3.344-7.508l-3.365,7.508H28.465z"/>
	<polygon fill="#808285" points="38.833,64.744 49.475,64.744 49.475,66.259 40.496,66.259 40.496,71.285 48.528,71.285 
		48.528,72.799 40.496,72.799 40.496,77.951 49.581,77.951 49.581,79.466 38.833,79.466 	"/>
	<path fill="#808285" d="M71.285,64.639h1.555l6.708,14.827h-1.788l-1.724-3.891h-8.012l-1.746,3.891h-1.703L71.285,64.639z
		 M75.385,74.082l-3.343-7.508l-3.366,7.508H75.385z"/>
	<rect x="85.902" y="64.744" fill="#808285" width="1.661" height="14.722"/>
	<path fill="#808285" d="M111.43,77.384c-1.346,1.45-2.902,2.292-4.815,2.292c-2.65,0-4.627-1.661-4.627-4.121v-0.043
		c0-1.956,1.304-3.365,3.554-4.248c-1.009-1.178-1.471-2.082-1.471-3.238v-0.043c0-1.935,1.555-3.491,3.89-3.491
		c2.061,0,3.575,1.494,3.575,3.323v0.042c0,1.872-1.325,3.071-3.47,3.828l3.365,3.428c0.652-0.947,1.241-2.062,1.767-3.28
		l1.367,0.63c-0.652,1.388-1.325,2.65-2.124,3.701l2.565,2.629l-1.262,0.968L111.43,77.384z M110.421,76.353l-3.934-4.059
		c-1.955,0.716-2.817,1.914-2.817,3.154v0.042c0,1.577,1.262,2.777,3.07,2.777C108.129,78.268,109.349,77.531,110.421,76.353
		 M109.979,67.94v-0.042c0-1.177-0.883-2.04-2.082-2.04c-1.325,0-2.229,0.926-2.229,2.124v0.043c0,0.862,0.357,1.515,1.472,2.713
		C109.013,70.107,109.979,69.203,109.979,67.94"/>
	<path fill="#808285" d="M129.011,64.744h6.33c1.809,0,3.26,0.547,4.185,1.473c0.715,0.714,1.136,1.745,1.136,2.901v0.042
		c0,2.44-1.682,3.87-3.996,4.29l4.521,6.016h-2.04l-4.269-5.72h-0.042h-4.164v5.72h-1.662V64.744z M135.194,72.252
		c2.208,0,3.785-1.136,3.785-3.028v-0.042c0-1.809-1.388-2.902-3.764-2.902h-4.542v5.973H135.194z"/>
	<path fill="#808285" d="M146.361,74.082V74.04c0-3.07,2.398-5.679,5.678-5.679c3.26,0,5.658,2.565,5.658,5.637v0.042
		c0,3.069-2.419,5.678-5.7,5.678C148.738,79.718,146.361,77.152,146.361,74.082 M156.035,74.082V74.04
		c0-2.335-1.746-4.248-4.038-4.248c-2.354,0-3.975,1.913-3.975,4.206v0.042c0,2.334,1.725,4.227,4.017,4.227
		C154.395,78.267,156.035,76.374,156.035,74.082"/>
	<path fill="#808285" d="M165.542,77.384v2.082h-1.619V64.114h1.619v6.665c0.884-1.304,2.167-2.418,4.165-2.418
		c2.607,0,5.194,2.062,5.194,5.637v0.042c0,3.554-2.565,5.657-5.194,5.657C167.687,79.697,166.383,78.603,165.542,77.384
		 M173.239,74.061V74.02c0-2.566-1.767-4.207-3.828-4.207c-2.019,0-3.933,1.703-3.933,4.186v0.042c0,2.523,1.914,4.206,3.933,4.206
		C171.515,78.246,173.239,76.689,173.239,74.061"/>
	<path fill="#808285" d="M180.516,74.082V74.04c0-3.07,2.397-5.679,5.678-5.679c3.26,0,5.658,2.565,5.658,5.637v0.042
		c0,3.069-2.418,5.678-5.699,5.678C182.893,79.718,180.516,77.152,180.516,74.082 M190.19,74.082V74.04
		c0-2.335-1.746-4.248-4.038-4.248c-2.355,0-3.975,1.913-3.975,4.206v0.042c0,2.334,1.725,4.227,4.017,4.227
		C188.55,78.267,190.19,76.374,190.19,74.082"/>
	<path fill="#808285" d="M198.645,76.584v-6.561h-1.515v-1.431h1.515v-3.28h1.619v3.28h3.45v1.431h-3.45v6.351
		c0,1.325,0.736,1.809,1.83,1.809c0.547,0,1.01-0.105,1.578-0.379v1.389c-0.568,0.294-1.178,0.463-1.956,0.463
		C199.97,79.655,198.645,78.792,198.645,76.584"/>
	<path fill="#808285" d="M209.917,64.429h1.852v1.787h-1.852V64.429z M210.022,68.594h1.619v10.872h-1.619V68.594z"/>
	<path fill="#808285" d="M218.035,74.082V74.04c0-3.07,2.397-5.679,5.573-5.679c2.061,0,3.344,0.862,4.354,1.935l-1.072,1.136
		c-0.862-0.904-1.83-1.64-3.302-1.64c-2.208,0-3.891,1.871-3.891,4.206v0.042c0,2.354,1.725,4.227,3.996,4.227
		c1.389,0,2.461-0.693,3.323-1.619l1.031,0.968c-1.094,1.219-2.398,2.103-4.438,2.103C220.433,79.718,218.035,77.131,218.035,74.082
		"/>
	<path fill="#808285" d="M233.114,78.077l0.82-1.156c1.178,0.883,2.481,1.388,3.764,1.388c1.305,0,2.25-0.673,2.25-1.725v-0.042
		c0-1.093-1.282-1.515-2.713-1.914c-1.703-0.483-3.596-1.072-3.596-3.069v-0.042c0-1.873,1.556-3.113,3.701-3.113
		c1.325,0,2.797,0.463,3.911,1.199l-0.736,1.219c-1.009-0.65-2.167-1.051-3.217-1.051c-1.283,0-2.103,0.674-2.103,1.578v0.041
		c0,1.031,1.345,1.43,2.797,1.871c1.682,0.506,3.491,1.156,3.491,3.113v0.042c0,2.062-1.704,3.26-3.87,3.26
		C236.058,79.676,234.333,79.066,233.114,78.077"/>
	<path fill="#808285" d="M261.462,64.639h1.556l6.709,14.827h-1.788l-1.724-3.891h-8.013l-1.746,3.891h-1.703L261.462,64.639z
		 M265.563,74.082l-3.344-7.508l-3.365,7.508H265.563z"/>
	<polygon fill="#808285" points="273.721,68.593 275.446,68.593 278.305,77.32 281.229,68.55 282.575,68.55 285.52,77.32 
		288.379,68.593 290.062,68.593 286.234,79.549 284.825,79.549 281.902,70.969 278.958,79.549 277.528,79.549 	"/>
	<path fill="#808285" d="M294.814,76.312v-0.043c0-2.334,1.893-3.555,4.648-3.555c1.387,0,2.355,0.19,3.322,0.464v-0.337
		c0-1.935-1.177-2.944-3.217-2.944c-1.283,0-2.293,0.315-3.302,0.778l-0.483-1.325c1.199-0.547,2.355-0.925,3.954-0.925
		c1.535,0,2.734,0.42,3.512,1.198c0.757,0.757,1.136,1.809,1.136,3.196v6.646h-1.599v-1.62c-0.757,0.968-1.998,1.852-3.911,1.852
		C296.833,79.697,294.814,78.54,294.814,76.312 M302.806,75.47v-1.01c-0.8-0.231-1.851-0.462-3.175-0.462
		c-2.019,0-3.175,0.883-3.175,2.186v0.044c0,1.366,1.261,2.166,2.733,2.166C301.187,78.394,302.806,77.194,302.806,75.47"/>
	<path fill="#808285" d="M311.114,68.593h1.62v2.839c0.799-1.809,2.377-3.112,4.438-3.028v1.745h-0.127
		c-2.376,0-4.311,1.704-4.311,4.985v4.332h-1.62V68.593z"/>
	<path fill="#808285" d="M321.861,74.061v-0.042c0-3.554,2.587-5.656,5.194-5.656c2.019,0,3.323,1.093,4.164,2.312v-6.562h1.619
		v15.353h-1.619v-2.188c-0.883,1.304-2.166,2.418-4.164,2.418C324.448,79.696,321.861,77.636,321.861,74.061 M331.283,74.04v-0.042
		c0-2.503-1.914-4.186-3.933-4.186c-2.104,0-3.828,1.557-3.828,4.186v0.042c0,2.565,1.768,4.206,3.828,4.206
		C329.369,78.246,331.283,76.542,331.283,74.04"/>
	<path fill="#808285" d="M348.316,70.022h-1.493v-1.408h1.493v-0.946c0-1.241,0.336-2.188,0.946-2.798
		c0.546-0.546,1.346-0.841,2.334-0.841c0.757,0,1.262,0.085,1.788,0.272v1.41c-0.589-0.169-1.031-0.273-1.577-0.273
		c-1.263,0-1.893,0.757-1.893,2.313v0.884h3.448v1.387h-3.429v9.443h-1.618V70.022z"/>
	<path fill="#808285" d="M357.842,74.082V74.04c0-3.07,2.398-5.679,5.678-5.679c3.261,0,5.658,2.565,5.658,5.637v0.042
		c0,3.069-2.418,5.678-5.699,5.678C360.219,79.718,357.842,77.152,357.842,74.082 M367.517,74.082V74.04
		c0-2.335-1.746-4.248-4.038-4.248c-2.355,0-3.976,1.913-3.976,4.206v0.042c0,2.334,1.726,4.227,4.017,4.227
		C365.876,78.267,367.517,76.374,367.517,74.082"/>
	<path fill="#808285" d="M375.404,68.593h1.618v2.839c0.801-1.809,2.377-3.112,4.438-3.028v1.745h-0.126
		c-2.377,0-4.312,1.704-4.312,4.985v4.332h-1.618V68.593z"/>
	<path fill="#808285" d="M394.792,72.146v-0.041c0-4.039,2.967-7.614,7.383-7.614c2.48,0,4.016,0.716,5.489,1.956l-1.073,1.263
		c-1.136-0.988-2.397-1.683-4.479-1.683c-3.26,0-5.594,2.755-5.594,6.035v0.043c0,3.512,2.25,6.119,5.825,6.119
		c1.683,0,3.238-0.652,4.248-1.472v-3.659h-4.479v-1.493h6.078v5.867c-1.367,1.22-3.429,2.25-5.91,2.25
		C397.652,79.718,394.792,76.353,394.792,72.146"/>
	<path fill="#808285" d="M414.288,74.082V74.04c0-3.07,2.398-5.679,5.679-5.679c3.26,0,5.658,2.565,5.658,5.637v0.042
		c0,3.069-2.419,5.678-5.7,5.678C416.666,79.718,414.288,77.152,414.288,74.082 M423.962,74.082V74.04
		c0-2.335-1.745-4.248-4.038-4.248c-2.354,0-3.975,1.913-3.975,4.206v0.042c0,2.334,1.725,4.227,4.017,4.227
		C422.322,78.267,423.962,76.374,423.962,74.082"/>
	<path fill="#808285" d="M431.176,74.082V74.04c0-3.07,2.397-5.679,5.678-5.679c3.26,0,5.658,2.565,5.658,5.637v0.042
		c0,3.069-2.419,5.678-5.7,5.678C433.553,79.718,431.176,77.152,431.176,74.082 M440.85,74.082V74.04
		c0-2.335-1.746-4.248-4.038-4.248c-2.354,0-3.975,1.913-3.975,4.206v0.042c0,2.334,1.725,4.227,4.017,4.227
		C439.209,78.267,440.85,76.374,440.85,74.082"/>
	<path fill="#808285" d="M448.106,74.061v-0.042c0-3.554,2.588-5.656,5.194-5.656c2.02,0,3.323,1.093,4.165,2.312v-6.562h1.619
		v15.353h-1.619v-2.188c-0.884,1.304-2.167,2.418-4.165,2.418C450.694,79.696,448.106,77.636,448.106,74.061 M457.528,74.04v-0.042
		c0-2.503-1.913-4.186-3.933-4.186c-2.104,0-3.827,1.557-3.827,4.186v0.042c0,2.565,1.767,4.206,3.827,4.206
		C455.615,78.246,457.528,76.542,457.528,74.04"/>
</g>
</svg>
